<svg id="svg" version="1.1" xmlns="http://www.w3.org/2000/svg" xmlns:xlink="http://www.w3.org/1999/xlink" width="400" height="363.8157894736842" viewBox="0, 0, 400,363.8157894736842"><g id="svgg"><path id="path0" d="M193.813 32.610 C 191.069 32.866,185.805 33.506,183.530 33.859 C 177.508 34.795,176.000 35.075,171.429 36.106 C 145.687 41.909,123.802 53.080,105.103 69.961 L 101.562 73.157 90.483 73.157 L 79.404 73.157 76.644 76.156 C 75.127 77.805,73.885 79.253,73.885 79.374 C 73.885 79.594,85.992 80.070,91.629 80.072 C 95.274 80.073,95.283 79.708,91.520 84.390 C 82.007 96.225,69.154 119.821,69.154 125.447 L 69.154 126.297 76.069 126.297 C 81.394 126.297,82.985 126.402,82.985 126.756 C 82.985 127.009,82.566 128.524,82.054 130.123 C 80.505 134.965,78.838 141.906,77.903 147.407 C 77.648 148.908,77.253 150.955,77.027 151.956 L 76.615 153.776 69.710 153.875 C 65.912 153.930,62.660 154.119,62.483 154.296 C 62.046 154.733,61.603 158.597,61.008 167.168 C 60.733 171.130,60.447 174.427,60.372 174.495 C 60.298 174.563,56.342 174.713,51.581 174.828 C 46.821 174.944,42.767 175.137,42.573 175.257 C 42.187 175.496,42.098 179.489,42.450 180.801 L 42.669 181.620 51.519 181.620 C 59.638 181.620,60.384 181.672,60.547 182.257 C 60.644 182.607,60.829 185.105,60.957 187.807 C 61.085 190.510,61.333 193.703,61.508 194.904 C 61.682 196.106,62.017 198.808,62.253 200.910 C 63.861 215.278,69.104 232.616,76.119 246.764 C 78.543 251.652,78.568 251.501,75.320 251.501 C 72.341 251.501,72.398 251.331,74.301 254.574 C 76.602 258.497,76.489 258.417,79.752 258.417 L 82.593 258.417 84.121 260.692 C 84.961 261.943,87.024 264.809,88.705 267.061 L 91.762 271.156 99.111 271.173 L 106.460 271.191 108.098 273.231 C 113.275 279.678,126.131 291.254,134.122 296.664 L 137.034 298.635 130.391 298.734 C 126.738 298.789,123.749 298.979,123.749 299.156 C 123.749 299.597,130.562 303.553,136.306 306.446 C 141.210 308.917,142.508 309.509,146.382 311.041 C 147.646 311.541,149.008 312.105,149.409 312.294 C 152.773 313.887,164.979 317.482,172.884 319.208 C 177.437 320.201,187.713 321.635,193.972 322.150 C 199.490 322.604,216.822 322.384,222.748 321.784 C 245.976 319.434,267.530 312.431,285.038 301.544 L 289.424 298.817 296.510 298.817 C 304.555 298.817,303.765 299.047,308.786 295.249 C 316.507 289.409,321.863 284.306,328.060 276.886 C 333.180 270.757,333.379 271.156,325.205 271.156 C 317.708 271.156,317.889 271.239,319.761 268.634 C 329.685 254.821,338.457 231.411,340.809 212.464 L 341.024 210.733 305.324 210.826 L 269.624 210.919 268.385 214.707 C 266.809 219.526,266.860 219.471,263.923 219.478 C 260.905 219.485,260.980 219.429,259.303 222.930 C 258.536 224.531,257.845 225.965,257.768 226.115 C 257.691 226.265,258.761 226.388,260.146 226.388 C 263.200 226.388,263.280 226.454,262.294 228.146 C 256.459 238.156,247.458 245.676,234.577 251.306 C 226.557 254.810,212.126 256.972,201.862 256.206 C 167.293 253.626,142.188 228.011,136.431 189.445 C 135.783 185.106,135.771 168.726,136.413 164.513 C 137.422 157.888,138.032 154.494,138.256 154.254 C 138.384 154.117,141.520 153.972,145.223 153.932 C 152.193 153.858,153.230 153.675,153.230 152.524 C 153.230 149.186,159.600 134.088,163.368 128.495 C 164.867 126.269,164.941 126.297,157.394 126.297 C 153.703 126.297,150.682 126.154,150.682 125.979 C 150.682 125.412,154.291 121.097,157.530 117.793 C 165.018 110.152,173.218 105.131,183.621 101.815 C 187.313 100.638,189.532 100.140,196.311 98.969 C 199.693 98.384,213.782 98.388,217.470 98.974 C 229.605 100.903,236.800 103.358,244.487 108.195 C 248.447 110.687,248.530 111.009,245.212 111.016 C 241.237 111.024,241.232 111.184,245.106 114.761 L 248.534 117.925 252.068 117.925 L 255.601 117.925 256.800 119.197 C 257.459 119.896,258.921 121.776,260.047 123.375 L 262.096 126.282 269.426 126.380 L 276.756 126.479 278.845 130.569 C 279.994 132.819,281.392 135.890,281.951 137.394 L 282.967 140.127 318.532 140.127 C 338.093 140.127,354.179 139.994,354.280 139.832 C 354.448 139.561,352.238 127.920,351.804 126.789 C 351.654 126.398,350.125 126.297,344.361 126.297 L 337.106 126.297 336.657 124.386 C 334.704 116.076,329.766 103.954,324.314 94.086 C 317.300 81.389,304.146 67.070,290.810 57.611 C 278.257 48.708,259.829 40.323,245.860 37.158 C 244.859 36.932,242.648 36.407,240.946 35.993 C 229.678 33.250,205.515 31.515,193.813 32.610 M128.403 76.524 L 128.298 79.891 117.561 79.891 L 106.824 79.891 106.720 76.524 L 106.615 73.157 117.561 73.157 L 128.508 73.157 128.403 76.524 M272.429 114.468 L 272.429 117.743 268.861 117.925 C 264.585 118.143,264.604 118.159,264.604 114.650 C 264.604 111.031,264.689 110.962,268.966 111.089 L 272.429 111.192 272.429 114.468 M108.280 178.162 L 108.280 181.438 99.272 181.535 L 90.264 181.632 90.264 178.173 L 90.264 174.714 99.272 174.800 L 108.280 174.886 108.280 178.162 M295.100 223.021 L 295.205 226.388 292.279 226.388 L 289.354 226.388 289.354 223.173 C 289.354 219.297,289.251 219.418,292.432 219.549 L 294.995 219.654 295.100 223.021 M106.460 254.959 L 106.460 258.235 103.549 258.235 L 100.637 258.235 100.532 254.853 L 100.427 251.471 103.444 251.577 L 106.460 251.683 106.460 254.959 " stroke="none" fill="#040404" fill-rule="evenodd"></path><path id="path1" d="M181.802 32.939 C 178.999 33.184,175.969 33.499,175.068 33.639 C 174.167 33.780,171.874 34.133,169.973 34.424 C 165.432 35.118,162.401 35.676,161.056 36.065 C 160.455 36.239,158.817 36.633,157.416 36.941 C 154.011 37.690,152.089 38.219,151.324 38.616 C 150.977 38.797,150.460 38.944,150.176 38.944 C 147.168 38.944,123.318 48.987,118.961 52.088 C 118.430 52.466,117.901 52.775,117.787 52.775 C 117.278 52.775,107.907 58.973,104.277 61.710 C 98.497 66.067,98.120 66.384,92.277 71.783 L 90.810 73.139 96.186 73.148 L 101.562 73.157 105.103 69.961 C 123.802 53.080,145.687 41.909,171.429 36.106 C 176.000 35.075,177.508 34.795,183.530 33.859 C 186.059 33.466,191.569 32.808,193.813 32.631 C 194.613 32.567,193.385 32.511,191.083 32.505 C 188.781 32.499,184.604 32.694,181.802 32.939 M65.812 76.116 C 62.183 79.889,62.059 79.709,68.267 79.709 L 73.568 79.709 74.541 78.526 C 75.076 77.875,76.401 76.401,77.485 75.250 L 79.456 73.157 74.056 73.157 L 68.657 73.157 65.812 76.116 M117.639 76.524 L 117.743 79.891 123.021 79.891 L 128.298 79.891 128.403 76.524 L 128.508 73.157 123.021 73.157 L 117.534 73.157 117.639 76.524 M83.712 80.346 C 83.712 80.496,82.704 81.847,81.472 83.348 C 76.288 89.667,71.275 97.058,67.402 104.095 C 66.245 106.195,62.602 113.529,62.602 113.757 C 62.602 113.852,62.282 114.624,61.891 115.473 C 60.126 119.304,57.848 125.601,58.087 125.988 C 58.192 126.158,60.725 126.297,63.716 126.297 L 69.154 126.297 69.154 125.447 C 69.154 119.821,82.007 96.225,91.520 84.390 C 93.231 82.261,94.631 80.418,94.631 80.296 C 94.631 80.173,92.175 80.073,89.172 80.073 C 86.169 80.073,83.712 80.196,83.712 80.346 M207.097 98.834 C 208.599 99.138,211.219 99.638,212.921 99.944 C 214.622 100.251,216.997 100.822,218.198 101.214 C 219.399 101.606,220.955 102.101,221.656 102.313 C 226.305 103.722,236.943 109.674,236.943 110.865 C 236.943 111.261,236.250 111.374,233.813 111.374 L 230.684 111.374 234.086 114.635 L 237.489 117.895 241.198 117.910 L 244.907 117.925 246.354 119.654 C 247.150 120.605,248.511 122.448,249.379 123.749 L 250.955 126.115 256.532 126.215 L 262.108 126.316 260.172 123.540 C 259.106 122.013,257.646 120.125,256.926 119.345 L 255.617 117.925 252.076 117.925 L 248.534 117.925 245.106 114.761 C 241.232 111.184,241.237 111.024,245.212 111.016 C 248.530 111.009,248.447 110.687,244.487 108.195 C 234.848 102.130,223.711 99.011,209.827 98.487 L 204.368 98.281 207.097 98.834 M265.053 111.435 C 264.519 111.969,264.431 117.242,264.948 117.762 C 265.145 117.959,266.825 118.029,268.861 117.925 L 272.429 117.743 272.429 114.468 L 272.429 111.192 268.966 111.089 C 266.583 111.018,265.362 111.126,265.053 111.435 M71.200 129.663 C 69.607 135.000,67.779 142.633,66.966 147.346 C 66.554 149.732,66.069 152.201,65.888 152.831 L 65.560 153.977 71.087 153.877 L 76.615 153.776 77.027 151.956 C 77.253 150.955,77.648 148.908,77.903 147.407 C 78.838 141.906,80.505 134.965,82.054 130.123 C 82.566 128.524,82.985 127.009,82.985 126.756 C 82.985 126.407,81.692 126.297,77.595 126.297 L 72.205 126.297 71.200 129.663 M267.628 130.018 C 268.702 132.075,270.140 135.190,270.823 136.941 L 272.066 140.125 277.434 140.126 C 280.387 140.127,282.803 140.008,282.803 139.862 C 282.803 139.153,280.644 134.093,278.810 130.500 L 276.756 126.479 271.216 126.378 L 265.675 126.278 267.628 130.018 M51.528 154.280 C 51.095 154.980,49.550 170.233,49.505 174.249 C 49.501 174.593,50.827 174.704,54.937 174.704 L 60.374 174.704 60.564 173.157 C 60.668 172.307,60.844 169.809,60.954 167.607 C 61.204 162.607,61.857 156.281,62.259 154.959 L 62.564 153.958 57.145 153.958 C 54.165 153.958,51.637 154.103,51.528 154.280 M97.477 178.162 L 97.361 181.639 102.821 181.538 L 108.280 181.438 108.280 178.162 L 108.280 174.886 102.937 174.786 L 97.594 174.685 97.477 178.162 M31.742 178.253 L 31.847 181.438 37.125 181.538 L 42.402 181.638 42.402 178.355 L 42.402 175.071 37.019 175.070 L 31.637 175.068 31.742 178.253 M49.624 183.167 C 49.738 184.017,49.933 186.351,50.057 188.353 C 50.436 194.458,51.745 204.922,52.720 209.645 C 52.906 210.546,53.334 212.663,53.671 214.350 C 54.008 216.038,54.497 218.085,54.758 218.900 C 55.019 219.715,55.440 221.201,55.693 222.202 C 56.228 224.320,58.823 232.254,59.503 233.849 C 59.759 234.449,60.664 236.661,61.514 238.763 C 62.364 240.864,64.022 244.467,65.197 246.768 C 67.820 251.904,67.870 251.501,64.604 251.501 C 63.103 251.501,61.874 251.578,61.874 251.672 C 61.874 251.857,62.605 253.172,64.305 256.051 L 65.379 257.871 68.439 258.053 L 71.498 258.235 73.121 260.601 C 74.014 261.902,76.117 264.809,77.794 267.061 L 80.843 271.156 86.302 271.156 C 91.449 271.156,91.734 271.119,91.285 270.515 C 91.024 270.163,89.651 268.321,88.234 266.421 C 86.817 264.521,84.968 261.943,84.126 260.692 L 82.593 258.417 79.752 258.417 C 76.489 258.417,76.602 258.497,74.301 254.574 C 72.398 251.331,72.341 251.501,75.320 251.501 C 78.568 251.501,78.543 251.652,76.119 246.764 C 69.104 232.616,63.861 215.278,62.253 200.910 C 62.017 198.808,61.682 196.106,61.508 194.904 C 61.333 193.703,61.085 190.510,60.957 187.807 C 60.630 180.913,61.323 181.620,54.893 181.620 L 49.417 181.620 49.624 183.167 M258.606 211.090 C 258.486 211.284,258.087 212.553,257.718 213.910 C 257.350 215.268,256.694 217.157,256.260 218.107 L 255.471 219.836 252.638 219.836 L 249.805 219.836 248.399 222.839 C 247.626 224.490,246.930 225.965,246.851 226.115 C 246.773 226.265,247.869 226.388,249.287 226.388 C 252.704 226.388,252.577 227.092,248.097 233.026 C 241.091 242.305,230.835 249.314,218.626 253.168 C 214.755 254.390,213.372 254.692,207.734 255.552 C 203.624 256.179,204.285 256.610,209.008 256.383 C 218.308 255.937,228.704 253.872,234.577 251.306 C 247.458 245.676,256.459 238.156,262.294 228.146 C 263.280 226.454,263.200 226.388,260.146 226.388 C 258.761 226.388,257.691 226.265,257.768 226.115 C 257.845 225.965,258.534 224.531,259.299 222.930 C 261.027 219.312,260.539 219.686,263.813 219.472 C 267.047 219.261,267.013 219.301,268.719 213.740 L 269.641 210.737 264.232 210.737 C 261.136 210.737,258.731 210.888,258.606 211.090 M289.611 219.700 C 289.470 219.842,289.354 221.404,289.354 223.173 L 289.354 226.388 292.279 226.388 L 295.205 226.388 295.100 223.021 L 294.995 219.654 292.432 219.549 C 291.022 219.491,289.752 219.559,289.611 219.700 M100.532 254.853 L 100.637 258.235 103.549 258.235 L 106.460 258.235 106.460 254.959 L 106.460 251.683 103.444 251.577 L 100.427 251.471 100.532 254.853 M95.541 271.434 C 95.742 271.581,97.205 273.176,98.794 274.977 C 105.773 282.892,112.900 289.273,121.383 295.202 C 123.785 296.881,125.845 298.386,125.960 298.546 C 126.076 298.706,128.614 298.792,131.602 298.736 L 137.034 298.635 134.122 296.664 C 126.131 291.254,113.275 279.678,108.098 273.231 L 106.460 271.191 100.819 271.179 C 97.716 271.172,95.341 271.287,95.541 271.434 M112.834 299.090 C 112.838 299.331,116.816 301.791,120.473 303.814 C 125.459 306.573,135.327 311.192,136.235 311.192 C 136.494 311.192,136.862 311.340,137.052 311.521 C 137.242 311.702,138.708 312.292,140.309 312.831 C 141.911 313.371,143.549 313.949,143.949 314.116 C 144.349 314.283,145.250 314.594,145.951 314.808 C 146.652 315.022,148.264 315.520,149.535 315.916 C 150.806 316.312,152.935 316.891,154.267 317.203 C 155.598 317.515,157.261 317.918,157.962 318.098 C 161.219 318.936,162.874 319.268,167.789 320.071 C 176.012 321.414,178.773 321.729,185.727 322.115 C 194.453 322.600,197.187 322.502,191.265 321.917 C 186.592 321.454,184.752 321.206,177.980 320.120 C 169.563 318.770,154.052 314.519,149.409 312.290 C 149.008 312.097,147.780 311.595,146.679 311.174 C 140.226 308.703,125.056 300.821,123.891 299.333 C 123.453 298.774,112.825 298.541,112.834 299.090 " stroke="none" fill="#08f6e4" fill-rule="evenodd"></path><path id="path2" d="M204.290 32.298 C 205.448 32.371,207.250 32.370,208.294 32.297 C 209.337 32.224,208.389 32.164,206.187 32.165 C 203.985 32.166,203.132 32.226,204.290 32.298 M216.924 32.456 C 224.731 33.110,235.775 34.741,241.030 36.016 C 242.686 36.418,244.859 36.932,245.860 37.158 C 259.829 40.323,278.257 48.708,290.810 57.611 C 304.146 67.070,317.300 81.389,324.314 94.086 C 329.766 103.954,334.704 116.076,336.657 124.386 L 337.106 126.297 342.688 126.297 L 348.270 126.297 347.540 123.658 C 335.983 81.920,304.436 50.384,262.602 38.749 C 261.401 38.415,260.009 37.997,259.509 37.821 C 258.162 37.345,248.060 35.087,245.221 34.628 C 236.257 33.176,232.659 32.775,225.114 32.388 C 216.210 31.931,211.154 31.973,216.924 32.456 M106.720 76.524 L 106.824 79.891 111.920 79.891 L 117.015 79.891 117.120 76.524 L 117.225 73.157 111.920 73.157 L 106.615 73.157 106.720 76.524 M76.144 79.978 C 77.487 80.048,79.780 80.049,81.240 79.979 C 82.700 79.910,81.601 79.853,78.799 79.852 C 75.996 79.852,74.802 79.909,76.144 79.978 M195.996 99.000 C 195.196 99.158,192.985 99.567,191.083 99.909 C 176.213 102.584,162.281 111.051,152.525 123.340 C 150.074 126.428,149.906 126.297,156.324 126.297 C 161.031 126.297,161.965 126.208,161.965 125.764 C 161.965 123.409,173.195 112.799,180.541 108.214 C 186.868 104.265,200.408 99.363,204.988 99.363 C 205.147 99.363,205.278 99.199,205.278 98.999 C 205.278 98.569,198.181 98.569,195.996 99.000 M164.266 126.752 C 164.263 127.002,163.763 127.944,163.153 128.844 C 159.527 134.205,153.230 149.275,153.230 152.592 C 153.230 152.923,152.944 153.361,152.593 153.565 C 152.141 153.828,153.670 153.939,157.856 153.947 L 163.756 153.958 164.173 152.411 C 166.323 144.445,170.907 133.676,174.250 128.735 C 175.939 126.239,176.043 126.297,169.851 126.297 C 165.632 126.297,164.269 126.408,164.266 126.752 M351.804 126.789 C 352.238 127.920,354.448 139.561,354.280 139.832 C 354.179 139.994,356.653 140.127,359.777 140.127 L 365.456 140.127 365.236 138.763 C 365.114 138.012,364.869 136.661,364.690 135.760 C 364.511 134.859,364.090 132.648,363.754 130.846 C 362.839 125.931,363.377 126.297,357.050 126.297 C 352.629 126.297,351.650 126.389,351.804 126.789 M138.191 154.231 C 138.028 154.509,137.262 158.936,136.413 164.513 C 134.888 174.526,136.097 191.606,139.092 202.356 C 147.547 232.704,171.924 254.011,200.590 256.106 C 206.262 256.521,207.219 255.612,202.184 254.593 C 165.092 247.082,140.553 204.948,147.919 161.419 C 148.020 160.819,148.296 159.181,148.531 157.780 C 148.767 156.379,149.107 154.945,149.288 154.595 C 149.634 153.923,138.583 153.561,138.191 154.231 M45.223 174.969 C 45.974 175.048,47.202 175.048,47.953 174.969 C 48.703 174.891,48.089 174.827,46.588 174.827 C 45.086 174.827,44.472 174.891,45.223 174.969 M90.264 178.162 L 90.264 181.620 93.722 181.620 L 97.179 181.620 97.179 178.162 L 97.179 174.704 93.722 174.704 L 90.264 174.704 90.264 178.162 M305.452 210.646 L 341.023 210.741 340.809 212.468 C 338.458 231.409,329.684 254.822,319.761 268.634 C 317.912 271.208,317.828 271.156,323.840 271.149 L 329.208 271.143 331.647 267.419 C 341.325 252.636,347.343 237.214,350.871 218.159 C 352.124 211.390,352.157 210.892,351.381 210.594 C 351.064 210.472,332.597 210.413,310.343 210.462 L 269.882 210.551 305.452 210.646 M331.938 271.700 C 331.938 273.119,320.703 285.455,314.974 290.326 C 312.202 292.682,305.659 297.694,304.459 298.379 C 303.888 298.705,304.939 298.797,309.307 298.806 L 314.882 298.817 316.586 297.664 C 324.870 292.054,334.707 282.682,341.691 273.747 C 343.780 271.073,343.911 271.156,337.580 271.156 C 332.816 271.156,331.938 271.240,331.938 271.700 M284.752 301.673 C 266.052 313.458,242.627 320.499,216.379 322.224 C 215.378 322.290,217.179 322.373,220.382 322.408 C 245.694 322.688,275.676 314.432,296.077 301.565 L 300.435 298.817 294.804 298.852 L 289.172 298.887 284.752 301.673 " stroke="none" fill="#f73345" fill-rule="evenodd"></path><path id="path3" d="M0.000 181.984 L 0.000 363.967 200.000 363.967 L 400.000 363.967 400.000 181.984 L 400.000 0.000 200.000 0.000 L 0.000 0.000 0.000 181.984 M225.114 32.388 C 232.659 32.775,236.257 33.176,245.221 34.628 C 248.060 35.087,258.162 37.345,259.509 37.821 C 260.009 37.997,261.401 38.415,262.602 38.749 C 295.965 48.028,325.629 72.391,339.445 101.862 C 342.607 108.607,347.062 120.755,347.784 124.600 C 348.060 126.071,349.335 126.290,357.676 126.294 C 363.286 126.297,362.845 125.967,363.754 130.846 C 364.090 132.648,364.511 134.859,364.690 135.760 C 364.869 136.661,365.110 137.986,365.225 138.704 L 365.434 140.011 357.181 140.251 C 352.641 140.383,331.530 140.491,310.267 140.491 L 271.608 140.491 271.221 139.490 C 271.008 138.940,270.389 137.343,269.846 135.942 C 269.303 134.540,268.080 131.920,267.127 130.118 L 265.396 126.843 258.035 126.661 L 250.674 126.479 249.132 124.231 C 248.285 122.995,246.988 121.247,246.251 120.348 L 244.910 118.712 240.992 118.458 L 237.074 118.204 233.551 114.849 C 229.297 110.797,229.321 111.010,233.110 111.010 C 236.827 111.010,236.850 110.747,233.325 108.550 C 225.530 103.691,216.080 100.426,207.097 99.491 C 200.128 98.765,185.315 104.462,175.516 111.637 C 171.080 114.884,161.965 124.231,161.965 125.532 C 161.965 125.995,165.312 126.290,170.610 126.293 C 175.980 126.297,175.925 126.260,174.250 128.735 C 170.916 133.663,166.305 144.489,164.189 152.361 L 163.786 153.857 156.682 154.036 C 152.774 154.134,149.484 154.307,149.370 154.422 C 148.373 155.419,146.694 169.712,146.689 177.252 C 146.660 215.450,169.874 247.812,202.184 254.616 C 205.995 255.419,214.316 254.537,217.834 252.957 C 218.235 252.777,219.336 252.380,220.281 252.073 C 223.135 251.149,227.537 249.235,229.725 247.966 C 230.859 247.308,231.885 246.770,232.003 246.770 C 232.256 246.770,235.411 244.583,237.474 242.978 C 242.003 239.453,246.118 235.084,249.430 230.283 C 251.728 226.952,251.691 226.752,248.772 226.752 C 245.949 226.752,245.972 226.856,247.916 222.803 C 249.724 219.034,249.613 219.121,252.640 219.114 C 255.521 219.107,255.518 219.110,256.767 215.105 C 257.298 213.403,257.882 211.642,258.066 211.192 L 258.401 210.373 304.603 210.373 C 330.014 210.373,351.064 210.472,351.381 210.594 C 352.157 210.892,352.124 211.390,350.871 218.159 C 347.347 237.192,340.919 253.613,331.512 267.607 C 330.335 269.359,329.499 270.817,329.654 270.847 C 329.809 270.878,330.100 270.941,330.300 270.987 C 330.500 271.034,333.490 271.091,336.943 271.114 C 343.965 271.161,343.788 271.063,341.691 273.747 C 334.726 282.659,324.736 292.179,316.652 297.610 L 315.014 298.711 307.464 298.919 L 299.914 299.128 295.817 301.723 C 278.428 312.736,256.009 319.721,230.391 322.107 C 218.863 323.181,182.796 322.951,175.250 321.756 C 174.049 321.566,171.838 321.232,170.337 321.013 C 163.708 320.050,153.236 317.785,151.688 316.980 C 151.341 316.799,150.829 316.652,150.552 316.652 C 150.030 316.652,144.870 315.057,143.585 314.499 C 143.185 314.325,142.038 313.929,141.037 313.618 C 139.436 313.121,135.114 311.431,133.030 310.488 C 125.786 307.208,120.562 304.611,118.961 303.495 C 118.430 303.124,117.890 302.821,117.761 302.821 C 117.632 302.821,116.630 302.247,115.535 301.547 C 114.440 300.846,113.408 300.273,113.243 300.273 C 112.907 300.273,111.541 298.857,111.773 298.747 C 111.854 298.709,114.821 298.586,118.368 298.474 L 124.816 298.271 121.130 295.723 C 117.482 293.201,116.353 292.331,112.466 289.045 C 107.043 284.460,100.671 278.166,97.179 273.947 L 95.177 271.528 87.989 271.524 C 81.488 271.520,80.736 271.455,80.129 270.847 C 79.297 270.016,74.913 264.123,72.845 261.056 L 71.310 258.781 68.457 258.781 C 65.178 258.781,65.434 258.970,62.909 254.680 C 60.847 251.177,60.861 251.137,64.080 251.137 C 65.469 251.137,66.606 251.047,66.606 250.937 C 66.606 250.826,66.046 249.639,65.362 248.298 C 63.833 245.302,61.146 239.575,61.146 239.312 C 61.146 239.206,60.837 238.424,60.459 237.576 C 58.906 234.092,55.758 224.856,54.785 220.928 C 54.512 219.827,54.052 218.025,53.763 216.924 C 53.474 215.823,53.040 213.858,52.800 212.557 C 52.559 211.256,52.211 209.536,52.026 208.735 C 51.439 206.195,50.680 200.874,50.260 196.360 C 50.037 193.958,49.691 190.437,49.491 188.535 C 49.292 186.633,49.130 184.384,49.132 183.537 L 49.136 181.996 40.127 181.899 L 31.119 181.802 31.119 178.162 L 31.119 174.522 40.075 174.425 L 49.030 174.328 49.266 170.785 C 49.601 165.758,50.613 154.115,50.735 153.887 C 50.756 153.847,54.041 153.724,58.035 153.614 L 65.297 153.412 65.743 151.046 C 65.988 149.745,66.382 147.534,66.619 146.133 C 66.857 144.732,67.339 142.439,67.691 141.037 C 68.043 139.636,68.607 137.261,68.944 135.760 C 69.281 134.258,69.693 132.702,69.860 132.302 C 70.026 131.902,70.362 130.837,70.606 129.936 C 70.850 129.035,71.193 127.930,71.368 127.480 L 71.686 126.661 64.767 126.661 C 58.788 126.661,57.818 126.582,57.627 126.084 C 57.439 125.595,58.752 121.501,60.127 118.289 C 60.341 117.789,60.645 117.052,60.802 116.652 C 60.960 116.251,61.839 114.324,62.756 112.369 C 63.672 110.413,64.422 108.737,64.422 108.643 C 64.422 108.502,66.065 105.472,67.974 102.093 C 70.831 97.034,75.376 90.053,76.823 88.500 C 77.209 88.086,77.525 87.648,77.525 87.528 C 77.525 87.257,82.626 81.084,83.151 80.719 C 83.360 80.573,78.783 80.410,72.980 80.355 C 60.500 80.237,60.979 80.509,65.242 75.956 L 68.244 72.749 79.345 72.747 L 90.446 72.744 92.493 70.858 C 105.656 58.728,120.154 49.604,136.852 42.943 C 144.147 40.032,153.931 36.987,159.054 36.033 C 159.955 35.865,161.674 35.486,162.875 35.191 C 166.060 34.408,172.944 33.388,179.423 32.739 C 181.518 32.530,183.306 32.284,183.396 32.194 C 183.714 31.876,218.275 32.037,225.114 32.388 " stroke="none" fill="#fbfbfb" fill-rule="evenodd"></path><path id="path4" d="M183.396 32.194 C 183.306 32.284,181.518 32.530,179.423 32.739 C 172.944 33.388,166.060 34.408,162.875 35.191 C 161.674 35.486,159.955 35.865,159.054 36.033 C 149.057 37.896,132.448 44.120,121.383 50.151 C 112.570 54.955,101.496 62.593,96.227 67.501 C 96.003 67.709,94.652 68.921,93.224 70.193 C 91.796 71.466,90.628 72.674,90.628 72.878 C 90.628 73.083,91.406 72.545,92.357 71.683 C 93.308 70.821,95.001 69.285,96.119 68.270 C 101.005 63.836,116.472 52.775,117.787 52.775 C 117.901 52.775,118.430 52.466,118.961 52.088 C 123.318 48.987,147.168 38.944,150.176 38.944 C 150.460 38.944,150.977 38.797,151.324 38.616 C 152.082 38.222,153.976 37.700,157.416 36.936 C 158.817 36.625,160.537 36.220,161.237 36.037 C 163.171 35.532,164.499 35.264,166.697 34.933 C 167.798 34.767,170.419 34.365,172.520 34.040 C 178.810 33.067,183.496 32.701,193.267 32.422 L 202.548 32.156 193.054 32.093 C 187.833 32.058,183.487 32.103,183.396 32.194 M210.833 32.290 C 211.386 32.374,212.205 32.372,212.653 32.285 C 213.101 32.199,212.648 32.130,211.647 32.133 C 210.646 32.136,210.280 32.207,210.833 32.290 M73.927 72.793 L 67.963 72.975 65.058 76.149 C 60.920 80.670,60.483 80.436,73.055 80.442 C 78.817 80.445,83.360 80.568,83.151 80.715 C 82.621 81.088,77.525 87.259,77.525 87.528 C 77.525 87.648,77.209 88.086,76.823 88.500 C 75.376 90.053,70.831 97.034,67.974 102.093 C 66.065 105.472,64.422 108.502,64.422 108.643 C 64.422 108.737,63.672 110.413,62.756 112.369 C 61.839 114.324,60.938 116.292,60.754 116.742 C 60.569 117.193,60.265 117.930,60.078 118.380 C 56.479 127.030,56.270 126.661,64.767 126.661 L 71.686 126.661 71.368 127.480 C 71.193 127.930,70.850 129.035,70.606 129.936 C 70.362 130.837,70.026 131.902,69.860 132.302 C 69.693 132.702,69.281 134.258,68.944 135.760 C 68.607 137.261,68.043 139.636,67.691 141.037 C 67.339 142.439,66.857 144.732,66.619 146.133 C 66.382 147.534,65.988 149.745,65.743 151.046 L 65.297 153.412 58.035 153.614 C 54.041 153.724,50.756 153.847,50.735 153.887 C 50.613 154.115,49.601 165.758,49.266 170.785 L 49.030 174.328 40.075 174.425 L 31.119 174.522 31.119 178.162 L 31.119 181.802 40.127 181.899 L 49.136 181.996 49.132 183.537 C 49.130 184.384,49.292 186.633,49.491 188.535 C 49.691 190.437,50.037 193.958,50.260 196.360 C 50.680 200.874,51.439 206.195,52.026 208.735 C 52.211 209.536,52.559 211.256,52.800 212.557 C 53.040 213.858,53.474 215.823,53.763 216.924 C 54.052 218.025,54.512 219.827,54.785 220.928 C 55.758 224.856,58.906 234.092,60.459 237.576 C 60.837 238.424,61.146 239.206,61.146 239.312 C 61.146 239.575,63.833 245.302,65.362 248.298 C 66.046 249.639,66.606 250.826,66.606 250.937 C 66.606 251.047,65.469 251.137,64.080 251.137 C 60.861 251.137,60.847 251.177,62.909 254.680 C 65.434 258.970,65.178 258.781,68.457 258.781 L 71.310 258.781 72.845 261.056 C 74.913 264.123,79.297 270.016,80.129 270.847 C 80.736 271.455,81.488 271.520,87.989 271.524 L 95.177 271.528 97.179 273.947 C 100.671 278.166,107.043 284.460,112.466 289.045 C 116.353 292.331,117.482 293.201,121.130 295.723 L 124.816 298.271 118.368 298.474 C 114.821 298.586,111.854 298.709,111.773 298.747 C 111.541 298.857,112.907 300.273,113.243 300.273 C 113.408 300.273,114.440 300.846,115.535 301.547 C 116.630 302.247,117.632 302.821,117.761 302.821 C 117.890 302.821,118.430 303.124,118.961 303.495 C 120.562 304.611,125.786 307.208,133.030 310.488 C 135.114 311.431,139.436 313.121,141.037 313.618 C 142.038 313.929,143.185 314.325,143.585 314.499 C 144.870 315.057,150.030 316.652,150.552 316.652 C 150.829 316.652,151.341 316.799,151.688 316.980 C 153.225 317.779,163.713 320.051,170.246 321.000 C 171.697 321.211,173.990 321.549,175.341 321.753 C 180.622 322.548,188.172 322.836,201.984 322.771 L 216.379 322.703 201.092 322.463 C 185.711 322.221,181.035 322.015,176.342 321.375 C 171.894 320.768,162.203 319.161,160.692 318.781 C 159.891 318.579,158.662 318.269,157.962 318.092 C 157.261 317.915,155.598 317.515,154.267 317.203 C 152.935 316.891,150.806 316.312,149.535 315.916 C 148.264 315.520,146.652 315.022,145.951 314.808 C 145.250 314.594,144.349 314.283,143.949 314.116 C 143.549 313.949,141.911 313.371,140.309 312.831 C 138.708 312.292,137.242 311.702,137.052 311.521 C 136.862 311.340,136.494 311.192,136.235 311.192 C 135.327 311.192,125.459 306.573,120.473 303.814 C 116.816 301.791,112.838 299.331,112.834 299.090 C 112.832 298.940,115.778 298.817,119.381 298.817 C 126.905 298.817,126.812 298.878,123.097 296.386 C 114.164 290.392,106.201 283.378,98.794 274.977 C 97.205 273.176,95.742 271.581,95.541 271.434 C 95.341 271.287,91.952 271.164,88.010 271.161 L 80.843 271.156 77.794 267.061 C 76.117 264.809,74.014 261.902,73.121 260.601 L 71.498 258.235 68.439 258.053 L 65.379 257.871 64.305 256.051 C 62.605 253.172,61.874 251.857,61.874 251.672 C 61.874 251.578,63.103 251.501,64.604 251.501 C 67.870 251.501,67.820 251.904,65.197 246.768 C 64.022 244.467,62.364 240.864,61.514 238.763 C 60.664 236.661,59.759 234.449,59.503 233.849 C 58.823 232.254,56.228 224.320,55.693 222.202 C 55.440 221.201,55.019 219.715,54.758 218.900 C 54.497 218.085,54.008 216.038,53.671 214.350 C 53.334 212.663,52.906 210.546,52.720 209.645 C 51.745 204.922,50.436 194.458,50.057 188.353 C 49.933 186.351,49.738 184.020,49.625 183.173 L 49.419 181.632 40.633 181.535 L 31.847 181.438 31.743 178.311 L 31.639 175.185 40.455 174.937 C 45.304 174.801,49.316 174.645,49.370 174.591 C 49.424 174.537,49.715 171.223,50.017 167.228 C 50.613 159.331,51.185 154.675,51.613 154.247 C 51.763 154.097,54.981 153.930,58.765 153.875 L 65.644 153.776 65.937 152.684 C 66.098 152.084,66.564 149.661,66.972 147.300 C 67.793 142.551,69.677 134.688,71.125 129.963 C 71.642 128.276,72.066 126.761,72.066 126.596 C 72.066 126.432,68.963 126.297,65.172 126.297 C 61.380 126.297,58.192 126.158,58.087 125.988 C 57.848 125.601,60.126 119.304,61.891 115.473 C 62.282 114.624,62.602 113.852,62.602 113.757 C 62.602 113.529,66.245 106.195,67.402 104.095 C 71.275 97.058,76.288 89.667,81.472 83.348 C 82.704 81.847,83.712 80.522,83.712 80.404 C 83.712 80.187,71.555 79.712,65.969 79.710 C 62.304 79.709,62.306 79.761,65.812 76.116 L 68.657 73.157 79.551 73.115 C 85.543 73.092,90.200 73.018,89.900 72.951 C 88.804 72.705,79.739 72.616,73.927 72.793 M117.329 76.433 C 117.329 78.335,117.390 79.113,117.465 78.162 C 117.540 77.211,117.540 75.655,117.465 74.704 C 117.390 73.753,117.329 74.531,117.329 76.433 M205.278 98.949 C 205.278 99.122,206.167 99.367,207.253 99.495 C 216.575 100.591,225.567 103.714,233.325 108.550 C 236.850 110.747,236.827 111.010,233.110 111.010 C 229.321 111.010,229.297 110.797,233.551 114.849 L 237.074 118.204 240.992 118.458 L 244.910 118.712 246.251 120.348 C 246.988 121.247,248.285 122.995,249.132 124.231 L 250.674 126.479 258.035 126.661 L 265.396 126.843 267.127 130.118 C 268.080 131.920,269.303 134.540,269.846 135.942 C 270.389 137.343,271.008 138.940,271.221 139.490 L 271.608 140.491 313.147 140.402 L 354.686 140.312 313.376 140.213 L 272.066 140.114 270.657 136.572 C 269.883 134.624,268.441 131.518,267.452 129.671 L 265.654 126.312 258.305 126.213 L 250.955 126.115 249.379 123.749 C 248.511 122.448,247.150 120.605,246.354 119.654 L 244.907 117.925 241.198 117.910 L 237.489 117.895 234.086 114.635 L 230.684 111.374 233.813 111.374 C 236.250 111.374,236.943 111.261,236.943 110.865 C 236.943 109.674,226.305 103.722,221.656 102.313 C 220.955 102.101,219.399 101.606,218.198 101.214 C 216.997 100.822,214.540 100.239,212.739 99.919 C 210.937 99.598,208.673 99.178,207.707 98.986 C 205.551 98.555,205.278 98.551,205.278 98.949 M162.607 126.190 C 163.059 126.277,163.714 126.274,164.062 126.183 C 164.410 126.092,164.040 126.020,163.239 126.024 C 162.439 126.028,162.154 126.103,162.607 126.190 M348.954 126.190 C 349.404 126.276,350.141 126.276,350.591 126.190 C 351.042 126.103,350.673 126.032,349.773 126.032 C 348.872 126.032,348.503 126.103,348.954 126.190 M150.227 154.215 C 150.678 154.302,151.415 154.302,151.865 154.215 C 152.316 154.128,151.947 154.057,151.046 154.057 C 150.146 154.057,149.777 154.128,150.227 154.215 M97.308 178.162 C 97.307 179.964,97.369 180.747,97.445 179.902 C 97.522 179.057,97.522 177.583,97.447 176.626 C 97.372 175.669,97.310 176.360,97.308 178.162 M258.066 211.192 C 257.882 211.642,257.298 213.403,256.767 215.105 C 255.518 219.110,255.521 219.107,252.640 219.114 C 249.613 219.121,249.724 219.034,247.916 222.803 C 245.972 226.856,245.949 226.752,248.772 226.752 C 251.691 226.752,251.728 226.952,249.430 230.283 C 246.118 235.084,242.003 239.453,237.474 242.978 C 235.411 244.583,232.256 246.770,232.003 246.770 C 231.885 246.770,230.859 247.308,229.725 247.966 C 227.537 249.235,223.135 251.149,220.281 252.073 C 219.336 252.380,218.235 252.777,217.834 252.957 C 216.755 253.441,208.185 255.141,206.821 255.141 C 206.172 255.141,205.641 255.305,205.641 255.505 C 205.641 255.953,205.679 255.953,208.371 255.488 C 209.572 255.280,211.493 254.951,212.639 254.755 C 227.341 252.249,244.047 240.957,250.974 228.841 C 252.307 226.509,252.223 226.388,249.287 226.388 C 247.869 226.388,246.773 226.265,246.851 226.115 C 246.930 225.965,247.626 224.490,248.399 222.839 L 249.805 219.836 252.638 219.836 L 255.471 219.836 256.260 218.107 C 256.694 217.157,257.358 215.239,257.735 213.847 C 258.628 210.551,258.152 210.773,264.612 210.646 L 270.246 210.535 264.323 210.454 C 258.488 210.374,258.396 210.385,258.066 211.192 M301.092 299.078 C 301.642 299.161,302.543 299.161,303.094 299.078 C 303.644 298.994,303.194 298.926,302.093 298.926 C 300.992 298.926,300.541 298.994,301.092 299.078 " stroke="none" fill="#95faf2" fill-rule="evenodd"></path></g></svg>